<svg width="637" height="133" viewBox="0 0 637 133" fill="none" xmlns="http://www.w3.org/2000/svg">
<path d="M49.48 68.384V75.424C51.1867 75.5947 54.1733 75.68 58.44 75.68C66.4613 75.68 73.6293 75.424 79.944 74.912L83.016 74.656V112.928C74.7387 115.829 62.9627 117.28 47.688 117.28C32.4987 117.28 20.8507 113.397 12.744 105.632C4.72267 97.8667 0.711998 86.3467 0.711998 71.072C0.711998 55.712 4.68 44.4053 12.616 37.152C20.552 29.8987 32.3707 26.272 48.072 26.272C54.6427 26.272 60.8293 26.656 66.632 27.424C72.52 28.192 76.7013 28.96 79.176 29.728L83.016 30.88V70.304C75.592 69.024 64.4133 68.384 49.48 68.384ZM90.462 78.368C90.462 65.312 93.406 55.4987 99.294 48.928C105.267 42.3573 114.995 39.072 128.478 39.072C141.961 39.072 151.347 41.8027 156.638 47.264C161.929 52.7253 164.574 61.6853 164.574 74.144L163.934 84H128.606V88.352C130.739 88.864 133.854 89.12 137.95 89.12C146.654 89.12 153.694 88.736 159.07 87.968L161.758 87.584V111.648C161.075 112.075 159.966 112.629 158.43 113.312C156.979 113.909 153.438 114.72 147.806 115.744C142.174 116.768 135.902 117.28 128.99 117.28C115.337 117.28 105.481 114.037 99.422 107.552C93.4487 101.067 90.462 91.3387 90.462 78.368ZM126.686 72.608V77.6H133.982V72.608C133.982 71.4987 133.598 70.6027 132.83 69.92C132.147 69.2373 131.251 68.896 130.142 68.896C129.118 68.896 128.265 69.2373 127.582 69.92C126.985 70.6027 126.686 71.4987 126.686 72.608ZM208.061 75.424V116H171.837V40.352H203.965L205.245 49.696C205.586 48.7573 206.354 47.6053 207.549 46.24C208.744 44.8747 210.024 43.7227 211.389 42.784C215.144 40.3093 220.136 39.072 226.365 39.072C234.728 39.072 241 41.376 245.181 45.984C249.448 50.592 251.581 57.2907 251.581 66.08V116H215.357V75.424C215.357 74.4 214.973 73.5467 214.205 72.864C213.522 72.096 212.669 71.712 211.645 71.712C210.621 71.712 209.768 72.096 209.085 72.864C208.402 73.5467 208.061 74.4 208.061 75.424ZM304.658 76.064V81.824H316.178V112.032C315.751 112.459 315.026 112.971 314.002 113.568C313.063 114.08 310.546 114.848 306.45 115.872C302.354 116.811 297.618 117.28 292.242 117.28C272.701 117.28 262.93 108.747 262.93 91.68V76.064H257.938V44.192C261.607 43.0827 264.85 41.0347 267.666 38.048C270.482 35.0613 272.402 32.3733 273.426 29.984L274.962 26.272H307.09V40.352H316.178V76.064H304.658ZM342.531 46.624C336.046 46.624 331.267 45.344 328.195 42.784C325.123 40.224 323.587 36.128 323.587 30.496C323.587 24.864 325.123 20.8107 328.195 18.336C331.352 15.8614 336.131 14.624 342.531 14.624C355.331 14.624 361.731 19.7867 361.731 30.112C361.731 36 360.152 40.224 356.995 42.784C353.838 45.344 349.016 46.624 342.531 46.624ZM323.587 116V49.568H361.731V116H323.587ZM405.436 75.424V116H369.212V40.352H401.34L402.62 49.696C402.961 48.7573 403.729 47.6053 404.924 46.24C406.119 44.8747 407.399 43.7227 408.764 42.784C412.519 40.3093 417.511 39.072 423.74 39.072C432.103 39.072 438.375 41.376 442.556 45.984C446.823 50.592 448.956 57.2907 448.956 66.08V116H412.732V75.424C412.732 74.4 412.348 73.5467 411.58 72.864C410.897 72.096 410.044 71.712 409.02 71.712C407.996 71.712 407.143 72.096 406.46 72.864C405.777 73.5467 405.436 74.4 405.436 75.424ZM456.337 78.368C456.337 65.312 459.281 55.4987 465.169 48.928C471.142 42.3573 480.87 39.072 494.353 39.072C507.836 39.072 517.222 41.8027 522.513 47.264C527.804 52.7253 530.449 61.6853 530.449 74.144L529.809 84H494.481V88.352C496.614 88.864 499.729 89.12 503.825 89.12C512.529 89.12 519.569 88.736 524.945 87.968L527.633 87.584V111.648C526.95 112.075 525.841 112.629 524.305 113.312C522.854 113.909 519.313 114.72 513.681 115.744C508.049 116.768 501.777 117.28 494.865 117.28C481.212 117.28 471.356 114.037 465.297 107.552C459.324 101.067 456.337 91.3387 456.337 78.368ZM492.561 72.608V77.6H499.857V72.608C499.857 71.4987 499.473 70.6027 498.705 69.92C498.022 69.2373 497.126 68.896 496.017 68.896C494.993 68.896 494.14 69.2373 493.457 69.92C492.86 70.6027 492.561 71.4987 492.561 72.608Z" fill="white"/>
<path d="M548 0H637V133H548V0Z" fill="#00FFEC"/>
</svg>
